<svg width="60" height="41" fill="none" xmlns="http://www.w3.org/2000/svg"><path d="M58.666.01h-12.12c-1.33 0-2.41 1.08-2.41 2.41v3.21a5.28 5.28 0 011.85 4.01v19.73c0 1.6-.72 3.04-1.85 4.01v4.77c0 1.33 1.08 2.41 2.41 2.41h12.12c1.33 0 2.41-1.08 2.41-2.41V2.41c0-1.33-1.08-2.41-2.41-2.41v.01zm-6.06 31.39c-1.07 0-1.93-.87-1.93-1.93s.87-1.93 1.93-1.93 1.93.87 1.93 1.93-.87 1.93-1.93 1.93zm5.02-17.61h-10.04a.87.87 0 010-1.74h10.04a.87.87 0 010 1.74zm0-3.5h-10.04a.87.87 0 010-1.74h10.04a.87.87 0 010 1.74zm0-3.5h-10.04a.87.87 0 010-1.74h10.04a.87.87 0 010 1.74zm-16.92-1.34H5.126c-2.31 0-4.2 1.88-4.2 4.2v19.73c0 2.31 1.88 4.2 4.2 4.2h15.39l-.72 4.82h-5.51c-.6 0-1.09.49-1.09 1.09 0 .6.49 1.09 1.09 1.09h17.25c.6 0 1.09-.49 1.09-1.09 0-.6-.49-1.09-1.09-1.09h-5.51l-.72-4.82h15.39c2.31 0 4.2-1.88 4.2-4.2V9.65c0-2.31-1.88-4.2-4.2-4.2h.01zm2.02 23.93c0 1.11-.91 2.02-2.02 2.02H5.126c-1.11 0-2.02-.91-2.02-2.02V9.65c0-1.11.91-2.02 2.02-2.02h35.58c1.11 0 2.02.91 2.02 2.02v19.73z" fill="#434343"></path></svg>