<?xml version="1.0" encoding="UTF-8" standalone="no"?>
<!-- Created with Inkscape (http://www.inkscape.org/) -->

<svg
   width="48"
   height="48"
   viewBox="0 0 48 48"
   version="1.1"
   id="svg1"
   xmlns:inkscape="http://www.inkscape.org/namespaces/inkscape"
   xmlns:sodipodi="http://sodipodi.sourceforge.net/DTD/sodipodi-0.dtd"
   xmlns="http://www.w3.org/2000/svg"
   xmlns:svg="http://www.w3.org/2000/svg">
  <sodipodi:namedview
     id="namedview1"
     pagecolor="#ffffff"
     bordercolor="#000000"
     borderopacity="0.25"
     inkscape:showpageshadow="2"
     inkscape:pageopacity="0.0"
     inkscape:pagecheckerboard="0"
     inkscape:deskcolor="#d1d1d1"
     inkscape:document-units="px" />
  <defs
     id="defs1" />
  <g
     inkscape:label="Livello 1"
     inkscape:groupmode="layer"
     id="layer1">
    <path
       d="m 31.98782,25.028453 a 9.4244272,9.4244272 0 0 1 -1.117442,2.95324 7.8420493,7.8420493 0 0 1 -2.07525,2.314701 6.8403423,6.8403423 0 0 1 -3.83123,1.356894 7.2394287,7.2394287 0 0 1 -3.911047,-0.957808 6.8124063,6.8124063 0 0 1 -2.793605,-2.953239 c -0.957808,-1.915615 -1.171319,-3.936987 -0.638538,-6.066114 h -2.234885 l 0.159635,11.014786 c 0,0.213512 0.07982,0.425027 0.239452,0.638539 0.159635,0.213511 0.345209,0.31927 0.558721,0.31927 h 16.601998 c 0.21351,0 0.425026,-0.105764 0.638538,-0.31927 0.213511,-0.213512 0.319269,-0.425027 0.319269,-0.638539 V 21.676127 h -2.234885 c 0.319269,1.063566 0.425028,2.181008 0.319269,3.352326 z m -7.343191,3.990864 c 1.277077,0 2.394519,-0.478903 3.352326,-1.436711 0.957808,-0.957807 1.436712,-2.101189 1.436712,-3.432143 a 5.1083069,5.1083069 0 0 0 -1.356894,-3.511961 c -0.90393,-1.011685 -2.021372,-1.516529 -3.352326,-1.516529 -1.330953,0 -2.474336,0.478904 -3.432144,1.436711 -0.957807,0.957808 -1.436711,2.101191 -1.436711,3.432144 0,1.330954 0.452962,2.500277 1.356894,3.511961 0.903931,1.011685 1.995432,1.516528 3.272509,1.516528 z m 8.301,-15.165285 h -2.234886 c -0.21351,0 -0.425026,0.105751 -0.638538,0.319269 -0.213511,0.213511 -0.319269,0.425027 -0.319269,0.638539 v 2.713787 c 0.213512,0.425027 0.532781,0.638539 0.957807,0.638539 h 2.234886 c 0.319269,0 0.558721,-0.105764 0.718356,-0.319269 a 1.06157,1.06157 0 0 0 0.239451,-0.638539 V 14.81184 c 0,-0.213512 -0.105764,-0.425028 -0.319269,-0.638539 -0.213512,-0.213512 -0.425028,-0.319269 -0.638538,-0.319269 z M 24.006091,0.1254566 c -4.364011,0 -8.380816,1.063566 -12.052412,3.1926917 A 23.532134,23.532134 0 0 0 3.2535931,12.018234 c -2.1291257,3.671596 -3.19269176,7.6884 -3.19269176,12.052411 0,4.364011 1.06356606,8.380816 3.19269176,12.052413 a 23.532134,23.532134 0 0 0 8.7000859,8.700084 c 3.671596,2.129127 7.688401,3.192692 12.052412,3.192692 4.364011,0 8.380815,-1.063565 12.052412,-3.192692 a 23.532134,23.532134 0 0 0 8.700085,-8.700084 c 2.129127,-3.671597 3.192692,-7.688402 3.192692,-12.052413 0,-4.364011 -1.063565,-8.380815 -3.192692,-12.052411 A 23.532134,23.532134 0 0 0 36.058503,3.3181483 C 32.386906,1.1890226 28.370102,0.1254566 24.006091,0.1254566 Z M 36.45759,33.808356 36.297955,33.967991 v 0.159634 a 1.8477704,1.8477704 0 0 1 -0.558721,1.356894 2.5940621,2.5940621 0 0 1 -1.356894,0.718356 H 15.066554 A 1.7380217,1.7380217 0 0 1 13.70966,35.564337 3.0649841,3.0649841 0 0 1 12.991304,34.127625 l -0.159635,-0.319269 0.159635,-19.635055 c 0,-0.532781 0.185574,-1.011685 0.55872,-1.436711 0.373147,-0.425028 0.824115,-0.692416 1.356896,-0.798173 h 19.315786 a 2.5940621,2.5940621 0 0 1 1.356893,0.718356 2.5940621,2.5940621 0 0 1 0.718356,1.356894 z"
       id="path1"
       style="stroke-width:1.99544" />
  </g>
</svg>
