<?xml version="1.0" encoding="UTF-8" standalone="no"?>
<!-- Created with Inkscape (http://www.inkscape.org/) -->

<svg
   width="48"
   height="48"
   viewBox="0 0 48 48"
   version="1.1"
   id="svg1"
   inkscape:export-filename="Icon8.1.svg"
   inkscape:export-xdpi="96"
   inkscape:export-ydpi="96"
   xmlns:inkscape="http://www.inkscape.org/namespaces/inkscape"
   xmlns:sodipodi="http://sodipodi.sourceforge.net/DTD/sodipodi-0.dtd"
   xmlns="http://www.w3.org/2000/svg"
   xmlns:svg="http://www.w3.org/2000/svg">
  <sodipodi:namedview
     id="namedview1"
     pagecolor="#ffffff"
     bordercolor="#000000"
     borderopacity="0.25"
     inkscape:showpageshadow="2"
     inkscape:pageopacity="0.0"
     inkscape:pagecheckerboard="0"
     inkscape:deskcolor="#d1d1d1"
     inkscape:document-units="px" />
  <defs
     id="defs1" />
  <g
     inkscape:label="Livello 1"
     inkscape:groupmode="layer"
     id="layer1">
    <path
       d="m 24.010962,0.05481121 c -4.358683,0 -8.370584,1.06226709 -12.037698,3.18879419 A 23.503406,23.503406 0 0 0 3.2838003,11.933069 c -2.1265272,3.667114 -3.18879421,7.679015 -3.18879421,12.037698 0,4.358683 1.06226701,8.370585 3.18879421,12.037698 a 23.503406,23.503406 0 0 0 8.6894637,8.689464 c 3.667114,2.126527 7.679015,3.188794 12.037698,3.188794 4.358683,0 8.370585,-1.062267 12.037698,-3.188794 a 23.503406,23.503406 0 0 0 8.689464,-8.689464 c 2.126527,-3.667113 3.188794,-7.679015 3.188794,-12.037698 0,-4.358683 -1.062267,-8.370584 -3.188794,-12.037698 A 23.503406,23.503406 0 0 0 36.04866,3.2436054 C 32.381547,1.1170783 28.369645,0.05481121 24.010962,0.05481121 Z M 35.96894,18.549817 v 0.797199 c 0,2.764285 -0.663668,5.42095 -1.992996,7.971985 a 16.314668,16.314668 0 0 1 -5.66011,6.218149 c -2.656664,1.700025 -5.6342,2.551035 -8.928623,2.551035 A 17.010224,17.010224 0 0 1 10.299147,33.53715 h 1.434958 c 2.764286,0 5.207699,-0.85101 7.334226,-2.551036 -1.275517,0 -2.417504,-0.398599 -3.427953,-1.195798 -1.01045,-0.797198 -1.727928,-1.833556 -2.152436,-3.109074 l 1.116078,0.31888 c 0.743387,0 1.275517,-0.105629 1.594396,-0.31888 a 5.3213002,5.3213002 0 0 1 -3.427953,-1.992996 5.8055984,5.8055984 0 0 1 -1.355238,-3.746833 c 0.85101,0.53213 1.753837,0.797198 2.710475,0.797198 -1.807647,-1.062267 -2.710475,-2.710475 -2.710475,-4.942631 0,-1.062267 0.265069,-2.072716 0.797199,-3.029354 1.594397,1.913277 3.427954,3.402045 5.50067,4.464312 a 16.209039,16.209039 0 0 0 6.776187,1.753836 c -0.21325,-0.318879 -0.318879,-0.797198 -0.318879,-1.434957 0,-1.594397 0.583948,-2.975543 1.753837,-4.145432 1.169888,-1.169889 2.551035,-1.753837 4.145432,-1.753837 1.594397,0 3.083165,0.583948 4.464312,1.753837 0.956638,-0.213251 2.232156,-0.69157 3.826553,-1.434957 -0.424508,1.488768 -1.275518,2.551035 -2.551035,3.188793 h 0.159439 c 1.488768,-0.318879 2.551036,-0.637758 3.188794,-0.956638 -1.062267,1.381147 -2.126527,2.497225 -3.188794,3.348234 z"
       id="path1"
       style="stroke-width:1.993" />
  </g>
</svg>
