<?xml version="1.0" encoding="UTF-8" standalone="no"?>
<!-- Created with Inkscape (http://www.inkscape.org/) -->

<svg
   width="48"
   height="48"
   viewBox="0 0 48 48"
   version="1.1"
   id="svg1"
   inkscape:export-filename="Icon9.1.svg"
   inkscape:export-xdpi="96"
   inkscape:export-ydpi="96"
   xmlns:inkscape="http://www.inkscape.org/namespaces/inkscape"
   xmlns:sodipodi="http://sodipodi.sourceforge.net/DTD/sodipodi-0.dtd"
   xmlns="http://www.w3.org/2000/svg"
   xmlns:svg="http://www.w3.org/2000/svg">
  <sodipodi:namedview
     id="namedview1"
     pagecolor="#ffffff"
     bordercolor="#000000"
     borderopacity="0.25"
     inkscape:showpageshadow="2"
     inkscape:pageopacity="0.0"
     inkscape:pagecheckerboard="0"
     inkscape:deskcolor="#d1d1d1"
     inkscape:document-units="px" />
  <defs
     id="defs1" />
  <g
     inkscape:label="Livello 1"
     inkscape:groupmode="layer"
     id="layer1">
    <path
       d="m 22.671011,35.099878 a 1.2037698,1.2037698 0 0 1 -0.3986,0.47832 0.85698843,0.85698843 0 0 1 -0.478319,0.159439 c -0.159439,0 -0.265068,-0.05381 -0.318879,-0.159439 a 1.110099,1.110099 0 0 1 -0.07972,-0.47832 v -5.899269 h -1.434957 v 6.537028 a 1.9929963,1.9929963 0 0 0 0.239159,1.036358 c 0.15944,0.265069 0.398599,0.3986 0.717479,0.3986 0.318879,0 0.61185,-0.105629 0.876918,-0.31888 0.265069,-0.21325 0.558039,-0.478319 0.876919,-0.797198 v 0.956638 h 1.434957 v -7.812546 h -1.434957 z m -8.609744,-7.174786 v -1.594398 h 5.26151 v 1.594398 H 17.56894 v 9.088063 h -1.753836 v -9.088063 z m 9.885261,-9.406943 c -0.21325,0 -0.398599,-0.07972 -0.558039,-0.23916 A 0.7653106,0.7653106 0 0 1 23.14933,17.72095 v -4.783191 c 0,-0.105629 0.05381,-0.213251 0.15944,-0.318879 0.105628,-0.105629 0.29297,-0.15944 0.558038,-0.15944 0.265069,0 0.47832,0.05381 0.637759,0.15944 a 0.53810901,0.53810901 0 0 1 0.23916,0.478319 v 4.623751 c 0,0.213251 -0.07972,0.3986 -0.23916,0.558039 a 0.7653106,0.7653106 0 0 1 -0.558039,0.23916 z m 3.985993,16.581729 c 0,-1.275517 0.05381,-2.604846 0.15944,-3.985992 0,-0.213251 -0.07972,-0.3986 -0.23916,-0.558039 -0.15944,-0.15944 -0.318879,-0.23916 -0.478319,-0.23916 h -0.23916 l -0.478319,0.31888 v 4.783191 l 0.478319,0.318879 0.31888,0.15944 c 0.213251,0 0.344788,-0.05381 0.398599,-0.15944 0.05381,-0.105629 0.07972,-0.318879 0.07972,-0.637759 z m 0.15944,-6.058709 c 0.424508,0 0.771289,0.15944 1.036358,0.47832 0.265068,0.318879 0.398599,0.797198 0.398599,1.434957 v 4.464312 c 0,0.53213 -0.105629,0.956638 -0.318879,1.275517 a 0.84104446,0.84104446 0 0 1 -0.876919,0.3986 4.1852923,4.1852923 0 0 1 -0.956638,-0.23916 1.0084562,1.0084562 0 0 1 -0.558039,-0.478319 v 0.637759 H 25.222046 V 26.330694 h 1.594397 v 3.507674 c 0.213251,-0.213251 0.424508,-0.398599 0.637759,-0.558039 a 1.0602741,1.0602741 0 0 1 0.637759,-0.23916 z m 7.812545,10.204142 c 0.53213,-0.424508 0.85101,-1.807648 0.956639,-4.145433 0.105628,-1.169888 0.21325,-2.285966 0.318879,-3.348233 0,-0.956639 -0.105629,-2.018906 -0.318879,-3.188795 -0.213251,-2.337784 -0.558039,-3.772742 -1.036358,-4.304872 -0.47832,-0.53213 -2.525127,-0.902827 -6.138429,-1.116078 l -5.261511,-0.159439 -5.42095,0.159439 c -3.613302,0.213251 -5.660109,0.583948 -6.138428,1.116078 -0.478319,0.53213 -0.823108,1.967088 -1.036358,4.304872 a 32.027451,32.027451 0 0 0 -0.15944,3.188795 c 0,1.062267 0.05381,2.178345 0.15944,3.348233 0.21325,2.337785 0.558039,3.746834 1.036358,4.225153 0.478319,0.478319 2.525126,0.876918 6.138428,1.195797 l 5.42095,0.15944 5.261511,-0.15944 c 3.613302,-0.318879 5.686018,-0.691569 6.218148,-1.116078 z M 16.931181,7.9951281 h -1.913276 l 2.232156,7.1747869 v 4.464312 h 1.913276 V 14.851036 L 21.395493,7.9951281 H 19.482217 L 18.366139,12.61888 h -0.15944 z m 4.623752,5.1020709 v 4.464312 c 0,0.743387 0.21325,1.329328 0.637759,1.753836 0.424508,0.424509 1.010449,0.637759 1.753836,0.637759 0.743388,0 1.329329,-0.21325 1.753837,-0.637759 0.424508,-0.424508 0.637759,-1.010449 0.637759,-1.753836 v -4.464312 c 0,-0.637759 -0.213251,-1.169889 -0.637759,-1.594397 -0.424508,-0.424509 -1.010449,-0.637759 -1.753837,-0.637759 -0.743387,0 -1.329328,0.21325 -1.753836,0.637759 -0.424509,0.424508 -0.637759,0.956638 -0.637759,1.594397 z m 6.218148,-1.913277 v 7.174787 a 1.9929963,1.9929963 0 0 0 0.23916,1.036358 c 0.15944,0.265069 0.424508,0.398599 0.797198,0.398599 0.372691,0 0.717479,-0.07972 1.036359,-0.239159 0.318879,-0.15944 0.637758,-0.398599 0.956638,-0.717479 v 0.956638 h 1.753837 v -8.609744 h -1.753837 v 6.377589 a 1.0423371,1.0423371 0 0 1 -0.478319,0.478319 1.2854826,1.2854826 0 0 1 -0.558039,0.159439 c -0.15944,0 -0.265069,-0.02591 -0.31888,-0.07972 -0.05381,-0.05381 -0.07972,-0.185349 -0.07972,-0.3986 V 11.024483 H 27.773081 Z M 24.105968,0.0231427 c 4.358683,0 8.370585,1.0622671 12.037698,3.1887942 a 23.503406,23.503406 0 0 1 8.689464,8.6894641 c 2.126527,3.667113 3.188794,7.679015 3.188794,12.037698 0,4.358683 -1.062267,8.370585 -3.188794,12.037698 a 23.503406,23.503406 0 0 1 -8.689464,8.689464 c -3.667113,2.126527 -7.679015,3.188794 -12.037698,3.188794 -4.358683,0 -8.370584,-1.062267 -12.037698,-3.188794 A 23.503406,23.503406 0 0 1 3.3788064,35.976797 C 1.2522792,32.309684 0.19001218,28.297782 0.19001218,23.939099 c 0,-4.358683 1.06226702,-8.370585 3.18879422,-12.037698 A 23.503406,23.503406 0 0 1 12.06827,3.2119369 C 15.735384,1.0854098 19.747285,0.0231427 24.105968,0.0231427 Z m 9.088063,32.0473813 -0.159439,-0.797199 c 0,-0.318879 -0.05381,-0.558039 -0.15944,-0.717478 a 0.53810901,0.53810901 0 0 0 -0.478319,-0.23916 0.53810901,0.53810901 0 0 0 -0.478319,0.23916 c -0.105629,0.159439 -0.15944,0.398599 -0.15944,0.717478 v 0.797199 z m -0.637758,-3.029355 c 0.637758,0 1.141986,0.185349 1.514677,0.558039 0.37269,0.372691 0.558039,0.93073 0.558039,1.674117 v 1.913277 h -2.869915 v 1.594397 c 0,0.318879 0.05381,0.558039 0.15944,0.717479 0.105629,0.159439 0.29297,0.239159 0.558039,0.239159 0.265068,0 0.45241,-0.07972 0.558039,-0.239159 0.105628,-0.15944 0.159439,-0.452411 0.159439,-0.876919 V 34.30268 h 1.434958 v 0.478319 c 0,0.743388 -0.185349,1.329329 -0.558039,1.753837 -0.372691,0.424508 -0.902828,0.637759 -1.594397,0.637759 -0.69157,0 -1.221707,-0.213251 -1.594397,-0.637759 -0.372691,-0.424508 -0.558039,-1.010449 -0.558039,-1.753837 v -3.507674 c 0,-0.637758 0.21325,-1.169888 0.637758,-1.594397 0.424509,-0.424508 0.956639,-0.637759 1.594398,-0.637759 z"
       id="path1"
       style="stroke-width:1.993" />
  </g>
</svg>
